Patient4_TMGait_0pt6_01_right_15_GRF.mot
version=1
nRows=78
nColumns=19
inDegrees=no
endheader
time	F1x	F1y	F1z	M1x	M1y	M1z	F2x	F2y	F2z	M2x	M2y	M2z	EC1x	EC1y	EC1z	EC2x	EC2y	EC2z
17.62	9.29	762.9885	56.7895	-273.4089	-46.1245	659.1297	17.5536	11.1324	-2.1206	3.5112	-1.2915	12.5501	-0.0592	0.0182	-0.0073	-0.0462	0.0165	0.9585
17.6325	9.6811	755.4671	57.7328	-270.8388	-45.4361	647.4463	11.6822	8.6076	-1.4747	2.8068	-0.72458	9.5459	-0.0592	0.0182	-0.0073	-0.0462	0.0165	0.9585
17.645	10.6281	746.8813	58.5335	-267.8402	-44.513	634.6141	6.7024	6.4871	-0.93865	2.2235	-0.24243	7.0195	-0.0592	0.0182	-0.0073	-0.0462	0.0165	0.9585
17.6575	12.0765	738.128	59.1682	-264.721	-43.4236	621.6497	2.8885	4.904	-0.53969	1.7969	0.12741	5.1371	-0.0592	0.0182	-0.0073	-0.0462	0.0165	0.9585
17.67	13.8913	730.1699	59.657	-261.8227	-42.2457	609.5123	0.24089	3.8443	-0.269	1.5203	0.38138	3.874	-0.0592	0.0182	-0.0073	-0.0462	0.0165	0.9585
17.6825	15.9437	723.8013	60.006	-259.4328	-41.006	598.9164	-1.4181	3.218	-0.10341	1.3643	0.53891	3.129	-0.0592	0.0182	-0.0073	-0.0462	0.0165	0.9585
17.695	18.118	719.5389	60.2475	-257.7419	-39.7416	590.284	-2.3227	2.8735	-0.017516	1.2815	0.62604	2.7282	-0.0592	0.0182	-0.0073	-0.0462	0.0165	0.9585
17.7075	20.3202	717.5646	60.4119	-256.8251	-38.4775	583.7357	-2.7105	2.6503	0.0089869	1.218	0.67392	2.4868	-0.0592	0.0182	-0.0073	-0.0462	0.0165	0.9585
17.72	22.4916	717.7888	60.5429	-256.6565	-37.2444	579.1602	-2.7912	2.3831	0.0036386	1.1144	0.7008	2.2185	-0.0592	0.0182	-0.0073	-0.0462	0.0165	0.9585
17.7325	24.6137	719.9434	60.6695	-257.1421	-36.0513	576.3173	-2.7021	1.8966	-0.020929	0.90459	0.72434	1.7306	-0.0592	0.0182	-0.0073	-0.0462	0.0165	0.9585
17.745	26.7033	723.6189	60.8002	-258.1337	-34.8864	574.87	-2.5527	1.0231	-0.040936	0.52147	0.73767	0.85765	-0.0592	0.0182	-0.0073	-0.0462	0.0165	0.9585
17.7575	28.7896	728.3317	60.9314	-259.4472	-33.7308	574.4493	-2.3703	-0.38997	-0.050159	-0.096753	0.72721	-0.56068	-0.0592	0.0182	-0.0073	-0.0462	0.0165	0.9585
17.77	30.9088	733.518	61.0602	-260.8624	-32.5703	574.6405	-2.155	-2.4265	-0.030504	-0.98664	0.6606	-2.6074	-0.0592	0.0182	-0.0073	-0.0462	0.0165	0.9585
17.7825	33.0523	738.5372	61.194	-262.1296	-31.4195	574.9923	-1.8537	-5.0898	0.017656	-2.1466	0.50861	-5.3004	-0.0592	0.0182	-0.0073	-0.0462	0.0165	0.9585
17.795	35.1849	742.7041	61.345	-262.9881	-30.3106	575.0114	-1.3911	-8.1874	0.10196	-3.494	0.23489	-8.4431	-0.0592	0.0182	-0.0073	-0.0462	0.0165	0.9585
17.8075	37.2455	745.3548	61.5349	-263.1876	-29.2964	574.2288	-0.67036	-11.2755	0.22171	-4.8325	-0.1958	-11.5886	-0.0592	0.0182	-0.0073	-0.0462	0.0165	0.9585
17.82	39.1788	745.8954	61.783	-262.5104	-28.4296	572.2244	0.40631	-13.5064	0.3735	-5.7938	-0.81469	-13.875	-0.0592	0.0182	-0.0073	-0.0462	0.0165	0.9585
17.8325	40.9495	743.8673	62.1105	-260.7972	-27.7582	568.6666	1.9141	-13.5325	0.53901	-5.7916	-1.6261	-13.9514	-0.0592	0.0182	-0.0073	-0.0462	0.0165	0.9585
17.845	42.5626	738.9749	62.4991	-257.958	-27.2819	563.3177	3.8543	-9.4515	0.68072	-3.9936	-2.5861	-9.9134	-0.0592	0.0182	-0.0073	-0.0462	0.0165	0.9585
17.8575	44.0731	731.0234	62.8979	-253.9528	-26.9581	555.9843	6.1111	1.2198	0.736	0.68211	-3.5689	0.74384	-0.0592	0.0182	-0.0073	-0.0462	0.0165	0.9585
17.87	45.5353	719.8152	63.1911	-248.7569	-26.6858	546.4577	8.3751	21.3501	0.60509	9.4857	-4.3263	20.9066	-0.0592	0.0182	-0.0073	-0.0462	0.0165	0.9585
17.8825	47.0014	705.011	63.2134	-242.3118	-26.3232	534.4014	10.0526	53.797	0.15793	23.6589	-4.4574	53.464	-0.0592	0.0182	-0.0073	-0.0462	0.0165	0.9585
17.895	48.4449	686.0278	62.7378	-234.491	-25.6991	519.3167	10.18	100.6935	-0.76037	44.1218	-3.3775	100.5819	-0.0592	0.0182	-0.0073	-0.0462	0.0165	0.9585
17.9075	49.7604	661.9886	61.5088	-225.0782	-24.6461	500.4891	7.3785	162.3817	-2.1933	71.0067	-0.45406	162.6578	-0.0592	0.0182	-0.0073	-0.0462	0.0165	0.9585
17.92	50.7107	631.7477	59.2761	-213.7644	-23.0404	477.0443	0.52194	236.191	-4.1297	103.1262	4.7654	237.051	-0.0592	0.0182	-0.0073	-0.0462	0.0165	0.9585
17.9325	50.937	594.0435	55.8812	-200.188	-20.8667	448.0528	-10.0453	315.9026	-6.6638	137.7167	12.1785	317.492	-0.0592	0.0182	-0.0073	-0.0462	0.0165	0.9585
17.945	49.9898	547.9109	51.3256	-184.0567	-18.2578	412.8205	-22.5293	392.8745	-10.5824	170.9357	21.7162	395.1198	-0.0592	0.0182	-0.0073	-0.0462	0.0165	0.9585
17.9575	47.4565	493.2823	45.835	-165.3342	-15.5026	371.3347	-35.0962	460.6975	-16.3413	199.9228	32.9482	463.2252	-0.0592	0.0182	-0.0073	-0.0462	0.0165	0.9585
17.97	43.1271	431.3562	39.8285	-144.3682	-12.958	324.5317	-46.2994	517.6657	-23.3178	223.9265	44.6036	519.8511	-0.0592	0.0182	-0.0073	-0.0462	0.0165	0.9585
17.9825	37.0669	364.4962	33.8045	-121.8808	-10.9572	274.1913	-55.2769	565.1852	-30.8116	243.6027	55.6079	566.2942	-0.0592	0.0182	-0.0073	-0.0462	0.0165	0.9585
17.995	29.5897	296	28.1054	-98.9124	-9.637	222.761	-61.7318	605.7424	-37.812	260.117	64.8625	604.9884	-0.0592	0.0182	-0.0073	-0.0462	0.0165	0.9585
18.0075	21.2649	229.6479	22.9551	-76.6802	-8.9727	173.0375	-65.7027	641.5864	-43.809	274.5275	71.9188	638.1859	-0.0592	0.0182	-0.0073	-0.0462	0.0165	0.9585
18.02	12.9385	169.0798	18.4179	-56.38	-8.7219	127.6915	-67.3938	674.2893	-48.4428	287.5689	76.5723	667.4918	-0.0592	0.0182	-0.0073	-0.0462	0.0165	0.9585
18.0325	5.5688	117.0244	14.4835	-38.9262	-8.5456	88.7091	-67.1799	704.2538	-51.9782	299.4359	79.2792	693.4325	-0.0592	0.0182	-0.0073	-0.0462	0.0165	0.9585
18.045	-0.067638	74.8642	11.0341	-24.7982	-8.0811	57.0765	-65.5269	730.9257	-54.6073	309.891	80.4666	715.6324	-0.0592	0.0182	-0.0073	-0.0462	0.0165	0.9585
18.0575	-3.6219	42.7196	7.9704	-14.05	-7.1359	32.8758	-62.9474	753.2463	-56.7122	318.4725	80.7427	733.2509	-0.0592	0.0182	-0.0073	-0.0462	0.0165	0.9585
18.07	-5.1842	19.847	5.26	-6.4335	-5.7242	15.5687	-59.8927	770.3142	-58.3048	324.7994	80.3297	745.5877	-0.0592	0.0182	-0.0073	-0.0462	0.0165	0.9585
18.0825	-5.2827	4.9753	3.0148	-1.5109	-4.1259	4.2397	-56.6808	781.703	-59.3815	328.7024	79.3699	752.3876	-0.0592	0.0182	-0.0073	-0.0462	0.0165	0.9585
18.095	-4.5933	-3.5105	1.3604	1.2716	-2.6781	-2.2723	-53.5053	787.4869	-59.7472	330.2334	77.7707	753.8345	-0.0592	0.0182	-0.0073	-0.0462	0.0165	0.9585
18.1075	-3.5763	-7.395	0.27185	2.5162	-1.5288	-5.2977	-50.4509	788.1111	-59.4211	329.5953	75.5965	750.4349	-0.0592	0.0182	-0.0073	-0.0462	0.0165	0.9585
18.12	-2.532	-8.2721	-0.36698	2.7612	-0.69607	-6.0163	-47.5685	784.3466	-58.416	327.1219	72.8856	742.9771	-0.0592	0.0182	-0.0073	-0.0462	0.0165	0.9585
18.1325	-1.6121	-7.4264	-0.66078	2.4387	-0.16095	-5.4105	-44.8746	777.1504	-56.9722	323.2186	69.8807	732.39	-0.0592	0.0182	-0.0073	-0.0462	0.0165	0.9585
18.145	-0.89236	-5.7747	-0.74295	1.8572	0.15452	-4.1853	-42.4092	767.6514	-55.2579	318.3651	66.7678	719.7382	-0.0592	0.0182	-0.0073	-0.0462	0.0165	0.9585
18.1575	-0.37553	-3.9253	-0.68516	1.2192	0.29857	-2.8054	-40.2016	757.097	-53.4923	313.0982	63.775	706.15	-0.0592	0.0182	-0.0073	-0.0462	0.0165	0.9585
18.17	-0.042222	-2.2277	-0.57111	0.63917	0.34068	-1.5361	-38.2888	746.8423	-51.7531	308.0046	60.9932	692.8409	-0.0592	0.0182	-0.0073	-0.0462	0.0165	0.9585
18.1825	0.14002	-0.8516	-0.43365	0.17417	0.31146	-0.51351	-36.684	738.1135	-50.135	303.6238	58.5153	680.8777	-0.0592	0.0182	-0.0073	-0.0462	0.0165	0.9585
18.195	0.21904	0.16473	-0.31975	-0.16402	0.2635	0.2258	-35.3795	731.9096	-48.6236	300.3988	56.3202	671.1055	-0.0592	0.0182	-0.0073	-0.0462	0.0165	0.9585
18.2075	0.22955	0.84909	-0.23069	-0.3848	0.20741	0.70938	-34.3204	728.8888	-47.2291	298.6256	54.3924	664.0482	-0.0592	0.0182	-0.0073	-0.0462	0.0165	0.9585
18.22	0.20243	1.2701	-0.18492	-0.511	0.17219	0.99139	-33.4253	729.3434	-45.9017	298.4416	52.6454	659.8925	-0.0592	0.0182	-0.0073	-0.0462	0.0165	0.9585
18.2325	0.15794	1.5131	-0.16443	-0.56919	0.14976	1.1586	-32.5558	733.2224	-44.6474	299.8274	51.0261	658.5147	-0.0592	0.0182	-0.0073	-0.0462	0.0165	0.9585
18.245	0.12198	1.6463	-0.17534	-0.5859	0.15637	1.2551	-31.5599	740.1693	-43.4346	302.6284	49.4327	659.531	-0.0592	0.0182	-0.0073	-0.0462	0.0165	0.9585
18.2575	0.092978	1.7274	-0.19276	-0.58222	0.16757	1.3258	-30.2999	749.5416	-42.2904	306.5546	47.814	662.3496	-0.0592	0.0182	-0.0073	-0.0462	0.0165	0.9585
18.27	0.070323	1.7719	-0.22338	-0.57012	0.19075	1.3781	-28.6671	760.3876	-41.2096	311.1776	46.0969	666.1566	-0.0592	0.0182	-0.0073	-0.0462	0.0165	0.9585
18.2825	0.043056	1.7877	-0.24563	-0.55556	0.20318	1.4237	-26.6118	771.4615	-40.2445	315.939	44.2871	669.9401	-0.0592	0.0182	-0.0073	-0.0462	0.0165	0.9585
18.295	0.0021425	1.7635	-0.25968	-0.53834	0.2028	1.44	-24.1062	781.3761	-39.4079	320.2206	42.3704	672.6098	-0.0592	0.0182	-0.0073	-0.0462	0.0165	0.9585
18.3075	-0.067831	1.6633	-0.25058	-0.50526	0.17005	1.3852	-21.1844	788.7976	-38.7519	323.4253	40.3917	673.1574	-0.0592	0.0182	-0.0073	-0.0462	0.0165	0.9585
18.32	-0.17617	1.4369	-0.2205	-0.43569	0.10183	1.2063	-17.9074	792.662	-38.2777	325.076	38.3685	670.8127	-0.0592	0.0182	-0.0073	-0.0462	0.0165	0.9585
18.3325	-0.32749	1.0248	-0.15822	-0.30165	-0.016385	0.84269	-14.3893	792.2904	-38.0339	324.8654	36.3883	665.1418	-0.0592	0.0182	-0.0073	-0.0462	0.0165	0.9585
18.345	-0.51825	0.35939	-0.071229	-0.075129	-0.17633	0.21859	-10.7409	787.4796	-38.0345	322.7057	34.5113	656.0584	-0.0592	0.0182	-0.0073	-0.0462	0.0165	0.9585
18.3575	-0.71962	-0.60428	0.047344	0.26351	-0.37288	-0.71371	-7.0531	778.6384	-38.2961	318.7748	32.7991	643.952	-0.0592	0.0182	-0.0073	-0.0462	0.0165	0.9585
18.37	-0.89224	-1.8821	0.18247	0.72036	-0.57471	-1.973	-3.3805	766.7161	-38.7991	313.4918	31.2694	629.5982	-0.0592	0.0182	-0.0073	-0.0462	0.0165	0.9585
18.3825	-0.96727	-3.4176	0.31838	1.2742	-0.73906	-3.5081	0.24137	753.0901	-39.5497	307.4553	29.9563	614.0905	-0.0592	0.0182	-0.0073	-0.0462	0.0165	0.9585
18.395	-0.84135	-5.0265	0.42056	1.8557	-0.78978	-5.14	3.7944	739.3387	-40.5364	301.3473	28.8607	598.6549	-0.0592	0.0182	-0.0073	-0.0462	0.0165	0.9585
18.4075	-0.37856	-6.3594	0.44353	2.3356	-0.63216	-6.5107	7.2654	727.0104	-41.762	295.8347	27.99	584.4745	-0.0592	0.0182	-0.0073	-0.0462	0.0165	0.9585
18.42	0.58404	-6.8226	0.32751	2.4963	-0.15076	-7.0277	10.6555	717.4581	-43.2015	291.4945	27.3233	572.5829	-0.0592	0.0182	-0.0073	-0.0462	0.0165	0.9585
18.4325	2.2267	-5.5371	-0.007175	2.0151	0.79331	-5.8276	13.973	711.6187	-44.8137	288.7281	26.8229	563.6781	-0.0592	0.0182	-0.0073	-0.0462	0.0165	0.9585
18.445	4.6945	-1.3402	-0.64368	0.46519	2.3366	-1.7635	17.2291	709.8922	-46.5269	287.7062	26.4262	558.0469	-0.0592	0.0182	-0.0073	-0.0462	0.0165	0.9585
18.4575	8.0433	7.1603	-1.6753	-2.6662	4.5885	6.553	20.4599	712.0556	-48.2439	288.3364	26.045	555.4974	-0.0592	0.0182	-0.0073	-0.0462	0.0165	0.9585
18.47	12.1516	21.4121	-3.1629	-7.9138	7.557	20.5796	23.6792	717.2317	-49.8516	290.2513	25.5828	555.3559	-0.0592	0.0182	-0.0073	-0.0462	0.0165	0.9585
18.4825	16.6	42.6083	-5.1157	-15.7177	11.085	41.5315	26.9127	723.9127	-51.2107	292.8214	24.9244	556.4601	-0.0592	0.0182	-0.0073	-0.0462	0.0165	0.9585
18.495	20.5212	71.1524	-7.4164	-26.2229	14.7312	69.8513	30.1381	730.0982	-52.1758	295.2183	23.9704	557.3007	-0.0592	0.0182	-0.0073	-0.0462	0.0165	0.9585
18.5075	22.4663	105.8958	-9.7608	-39.0013	17.6595	104.4576	33.3022	733.5204	-52.5688	296.5091	22.6126	556.1942	-0.0592	0.0182	-0.0073	-0.0462	0.0165	0.9585
18.52	20.8265	143.6578	-11.5762	-52.8741	18.7214	142.2878	36.2999	731.9609	-52.2349	295.7854	20.7931	551.523	-0.0592	0.0182	-0.0073	-0.0462	0.0165	0.9585
18.5325	15.3712	179.7464	-12.0514	-66.0797	17.0227	178.7524	38.9967	723.5891	-51.0505	292.3012	18.4955	541.9666	-0.0592	0.0182	-0.0073	-0.0462	0.0165	0.9585
18.545	7.9809	209.7416	-10.2162	-76.9459	12.3134	209.3788	41.2764	707.2297	-49.0182	285.5776	15.8046	526.7027	-0.0592	0.0182	-0.0073	-0.0462	0.0165	0.9585
18.5575	0.41982	232.1325	-6.6207	-84.9312	5.8364	232.3863	43.0609	682.5359	-46.2556	275.471	12.8642	505.5334	-0.0592	0.0182	-0.0073	-0.0462	0.0165	0.9585
18.57	-6.3741	248.9317	-1.838	-90.7896	-1.4704	249.5669	44.3555	649.9495	-42.9988	262.1592	9.8616	478.8406	-0.0592	0.0182	-0.0073	-0.0462	0.0165	0.9585
18.5825	-12.163	264.0497	3.3266	-95.9926	-8.712	264.7613	45.2073	610.5024	-39.4386	246.067	6.921	447.4325	-0.0592	0.0182	-0.0073	-0.0462	0.0165	0.9585
